<?xml version="1.0" standalone="no"?>
<!DOCTYPE svg PUBLIC "-//W3C//DTD SVG 20010904//EN"
 "http://www.w3.org/TR/2001/REC-SVG-20010904/DTD/svg10.dtd">
<svg version="1.0" xmlns="http://www.w3.org/2000/svg"
 width="106.000000pt" height="106.000000pt" viewBox="0 0 106.000000 106.000000"
 preserveAspectRatio="xMidYMid meet">
<metadata>
Created by potrace 1.14, written by Peter Selinger 2001-2017
</metadata>
<g transform="translate(0.000000,106.000000) scale(0.100000,-0.100000)"
fill="#000000" stroke="none">
<path d="M446 1051 c2 -3 -18 -11 -46 -18 -73 -19 -155 -60 -196 -98 -19 -19
-37 -33 -39 -32 -7 3 -84 -103 -100 -137 -29 -63 -62 -165 -51 -159 8 5 8 3 0
-8 -13 -15 -16 -149 -4 -149 4 0 10 -17 13 -37 4 -35 52 -152 66 -163 3 -3 17
-21 30 -40 47 -70 151 -142 251 -174 30 -10 63 -23 74 -28 14 -7 16 -6 10 4
-6 10 -5 11 7 1 13 -11 164 -15 153 -4 -2 3 19 11 48 18 64 16 148 57 188 92
16 14 38 33 48 41 21 17 82 103 100 140 19 39 52 140 45 140 -3 0 -1 6 4 13
14 16 17 151 4 143 -5 -3 -8 2 -7 11 4 23 -28 122 -54 168 -52 92 -106 149
-195 202 -52 32 -151 69 -172 65 -6 -1 -14 2 -18 8 -5 8 -12 7 -23 -2 -13 -11
-14 -11 -8 0 6 11 -6 13 -62 11 -39 -2 -69 -5 -66 -8z"/>
</g>
</svg>
